HIERARCHY
ROOT joint_Root
{
	OFFSET 0.0 0.0 0.0
	CHANNELS 6 Xposition Yposition Zposition Zrotation Xrotation Yrotation 
	JOINT Hips
	{
		OFFSET -17.1583 93.1646 452.98
		CHANNELS 6 Xposition Yposition Zposition Zrotation Xrotation Yrotation 
		JOINT Spine
		{
			OFFSET 15.7357 0.0 0.0
			CHANNELS 6 Xposition Yposition Zposition Zrotation Xrotation Yrotation 
			JOINT Chest
			{
				OFFSET 8.98455 -0.406207 0.0
				CHANNELS 6 Xposition Yposition Zposition Zrotation Xrotation Yrotation 
				JOINT Neck
				{
					OFFSET 16.3773 0.0 0.0
					CHANNELS 6 Xposition Yposition Zposition Zrotation Xrotation Yrotation 
					JOINT Head
					{
						OFFSET 6.45672 0.0 0.0
						CHANNELS 6 Xposition Yposition Zposition Zrotation Xrotation Yrotation 
						End Site
						{
							OFFSET 0.0 0.0 0.0
						}
					}
				}
				JOINT Shoulder_L
				{
					OFFSET 12.9942 -0.242716 4.98039
					CHANNELS 6 Xposition Yposition Zposition Zrotation Xrotation Yrotation 
					JOINT UpperArm_L
					{
						OFFSET 5.34809 0.0 0.0
						CHANNELS 6 Xposition Yposition Zposition Zrotation Xrotation Yrotation 
						JOINT LowerArm_L
						{
							OFFSET 24.3286 1.87007e-05 0.0
							CHANNELS 6 Xposition Yposition Zposition Zrotation Xrotation Yrotation 
							JOINT Hand_L
							{
								OFFSET 22.2916 0.0 0.0
								CHANNELS 6 Xposition Yposition Zposition Zrotation Xrotation Yrotation 
								End Site
								{
									OFFSET 0.0 0.0 0.0
								}
							}
						}
					}
				}
				JOINT Shoulder_R
				{
					OFFSET 12.9945 -0.242716 -4.98039
					CHANNELS 6 Xposition Yposition Zposition Zrotation Xrotation Yrotation 
					JOINT UpperArm_R
					{
						OFFSET -5.34813 0.0 0.0
						CHANNELS 6 Xposition Yposition Zposition Zrotation Xrotation Yrotation 
						JOINT LowerArm_R
						{
							OFFSET -24.3289 0.000322201 0.0
							CHANNELS 6 Xposition Yposition Zposition Zrotation Xrotation Yrotation 
							JOINT Hand_R
							{
								OFFSET -22.2915 -0.000108084 0.0
								CHANNELS 6 Xposition Yposition Zposition Zrotation Xrotation Yrotation 
								End Site
								{
									OFFSET 0.0 0.0 0.0
								}
							}
						}
					}
				}
			}
		}
		JOINT UpperLeg_L
		{
			OFFSET -2.19248 -6.46944 0.0
			CHANNELS 6 Xposition Yposition Zposition Zrotation Xrotation Yrotation 
			JOINT LowerLeg_L
			{
				OFFSET 39.0811 0.0 -1.23785e-05
				CHANNELS 6 Xposition Yposition Zposition Zrotation Xrotation Yrotation 
				JOINT Foot_L
				{
					OFFSET 40.9854 0.0 -1.26872e-05
					CHANNELS 6 Xposition Yposition Zposition Zrotation Xrotation Yrotation 
					JOINT Toes_L
					{
						OFFSET 11.7543 0.0 0.0
						CHANNELS 6 Xposition Yposition Zposition Zrotation Xrotation Yrotation 
						End Site
						{
							OFFSET 0.0 0.0 0.0
						}
					}
				}
			}
		}
		JOINT UpperLeg_R
		{
			OFFSET -2.19251 6.46944 0.0
			CHANNELS 6 Xposition Yposition Zposition Zrotation Xrotation Yrotation 
			JOINT LowerLeg_R
			{
				OFFSET -39.0811 -0.00228153 -0.0401928
				CHANNELS 6 Xposition Yposition Zposition Zrotation Xrotation Yrotation 
				JOINT Foot_R
				{
					OFFSET -40.9854 0.0 0.0
					CHANNELS 6 Xposition Yposition Zposition Zrotation Xrotation Yrotation 
					JOINT Toes_R
					{
						OFFSET -11.7543 0.0 0.0
						CHANNELS 6 Xposition Yposition Zposition Zrotation Xrotation Yrotation 
						End Site
						{
							OFFSET 0.0 0.0 0.0
						}
					}
				}
			}
		}
	}
}
MOTION
Frames:	6
Frame Time:	0.0333333
0.000000 0.000000 0.000000 0.000000 0.000000 -0.000000 -2.077610 92.529500 -0.853072 87.628200 1.215710 6.061710 15.735700 0.000005 -0.000001 87.208500 85.857400 -86.132900 8.984550 -0.406207 -0.000000 0.514652 -0.471409 2.151750 16.377300 -0.000001 -0.000001 9.555520 2.167710 -2.596130 6.456720 -0.000001 -0.000000 -2.781650 1.238490 -0.941464 12.994200 -0.242716 4.980390 -93.282400 9.181620 -70.230500 5.348090 -0.000007 -0.000001 -73.680500 16.773200 -0.129813 24.328600 0.000019 0.000005 12.501100 25.947600 -26.872300 22.291600 -0.000001 0.000005 -7.398130 5.069290 5.809030 12.994500 -0.242716 -4.980390 87.326700 7.425310 -70.135600 -5.348130 -0.000001 -0.000004 -70.639200 28.425900 -2.564680 -24.328900 0.000322 -0.000009 4.217120 10.151000 -22.707500 -22.291500 -0.000108 -0.000004 -6.419340 5.282360 0.562418 -2.192480 -6.469440 -0.000000 -177.688000 -0.371258 0.504514 39.081100 -0.000007 -0.000012 0.243186 -0.588536 22.451100 40.985400 -0.000006 -0.000013 1.718480 3.502580 -71.805500 11.754300 -0.000000 0.000003 -0.001100 0.184453 -9.094380 -2.192510 6.469440 -0.000001 -175.228000 9.594080 -174.430000 -39.081100 -0.002282 -0.040193 0.085913 -0.308176 15.001200 -40.985400 0.000008 0.000006 3.150120 3.683240 -70.572000 -11.754300 -0.000006 -0.000006 -0.011351 0.281134 -5.148770
0.000000 0.000000 0.000000 0.000000 0.000000 -0.000000 -2.084950 92.527800 -0.921859 87.595000 1.263130 6.011450 15.735700 0.000005 -0.000001 86.954700 85.826200 -85.852000 8.984550 -0.406207 -0.000000 0.575697 -0.512497 2.206400 16.377300 -0.000001 -0.000001 9.473960 2.116000 -2.525970 6.456720 -0.000001 -0.000000 -2.990870 1.255120 -0.944593 12.994200 -0.242716 4.980390 -93.338200 9.300990 -70.155700 5.348090 -0.000007 -0.000001 -73.765100 13.789900 0.101803 24.328600 0.000019 0.000005 12.968300 24.875800 -28.699100 22.291600 -0.000001 0.000005 -8.058260 5.042540 6.401500 12.994500 -0.242716 -4.980390 87.282400 7.480460 -69.968300 -5.348130 -0.000001 -0.000004 -70.238800 27.025000 -2.395950 -24.328900 0.000322 -0.000009 5.202850 11.341400 -24.847800 -22.291500 -0.000108 -0.000004 -7.745680 5.255070 1.302210 -2.192480 -6.469440 -0.000000 -177.667000 -0.298423 0.336700 39.081100 -0.000007 -0.000012 0.245218 -0.590722 22.544600 40.985400 -0.000006 -0.000013 1.712150 3.465990 -71.730500 11.754300 -0.000000 0.000003 -0.001011 0.183192 -9.145610 -2.192510 6.469440 -0.000001 -175.084000 9.293050 -174.549000 -39.081100 -0.002282 -0.040193 0.088442 -0.317682 14.998300 -40.985400 0.000008 0.000006 3.216820 3.309520 -70.480200 -11.754300 -0.000006 -0.000006 -0.011291 0.280715 -5.165930
0.000000 0.000000 0.000000 0.000000 0.000000 -0.000000 -2.070930 92.558400 -0.998541 87.598900 1.203450 5.878820 15.735700 0.000005 -0.000001 87.252100 85.803900 -86.125600 8.984550 -0.406207 -0.000000 0.622256 -0.472399 2.253850 16.377300 -0.000001 -0.000001 9.262880 2.086170 -2.398270 6.456720 -0.000001 -0.000000 -3.297290 1.247440 -0.939256 12.994200 -0.242716 4.980390 -93.402900 9.409890 -70.014300 5.348090 -0.000007 -0.000001 -73.751600 10.774500 0.702356 24.328600 0.000019 0.000005 13.631000 22.395000 -32.478600 22.291600 -0.000001 0.000005 -7.506570 4.995080 7.421730 12.994500 -0.242716 -4.980390 87.243600 7.494050 -69.738200 -5.348130 -0.000001 -0.000004 -69.763300 24.684400 -1.863540 -24.328900 0.000322 -0.000009 6.836960 12.569300 -28.853200 -22.291500 -0.000108 -0.000004 -9.327500 5.207490 2.536180 -2.192480 -6.469440 -0.000000 -177.687000 -0.255380 0.258236 39.081100 -0.000007 -0.000012 0.241410 -0.586181 22.384000 40.985400 -0.000006 -0.000013 1.691730 3.387230 -71.716800 11.754300 -0.000000 0.000003 -0.001084 0.184214 -9.104070 -2.192510 6.469440 -0.000001 -175.076000 9.192000 -174.689000 -39.081100 -0.002282 -0.040193 0.084299 -0.304350 14.897900 -40.985400 0.000008 0.000006 3.077740 3.328300 -70.412300 -11.754300 -0.000006 -0.000006 -0.011438 0.281755 -5.123370
0.000000 0.000000 0.000000 0.000000 0.000000 -0.000000 -2.069330 92.570300 -1.091740 87.561100 1.170200 5.723730 15.735700 0.000005 -0.000001 87.524900 85.781700 -86.367000 8.984550 -0.406207 -0.000000 0.668120 -0.435902 2.316610 16.377300 -0.000001 -0.000001 9.031380 2.028410 -2.198210 6.456720 -0.000001 -0.000000 -3.736580 1.210230 -0.808413 12.994200 -0.242716 4.980390 -93.428500 9.395540 -69.847900 5.348090 -0.000007 -0.000001 -73.673900 7.992450 1.405020 24.328600 0.000019 0.000005 15.593400 20.666300 -38.334700 22.291600 -0.000001 0.000005 -6.231680 4.971340 7.922370 12.994500 -0.242716 -4.980390 87.236100 7.438840 -69.550300 -5.348130 -0.000001 -0.000004 -69.310900 21.268300 -0.769457 -24.328900 0.000322 -0.000009 8.812890 12.854900 -34.873800 -22.291500 -0.000108 -0.000004 -11.011900 5.149560 3.958110 -2.192480 -6.469440 -0.000000 -177.680000 -0.179451 0.004370 39.081100 -0.000007 -0.000012 0.241756 -0.586347 22.407200 40.985400 -0.000006 -0.000013 1.668640 3.243420 -71.594800 11.754300 -0.000000 0.000003 -0.001089 0.184296 -9.100740 -2.192510 6.469440 -0.000001 -175.009000 9.141050 -174.927000 -39.081100 -0.002282 -0.040193 0.082569 -0.297653 14.907200 -40.985400 0.000008 0.000006 2.944750 3.329270 -70.275800 -11.754300 -0.000006 -0.000006 -0.010964 0.278372 -5.261850
0.000000 0.000000 0.000000 0.000000 0.000000 -0.000000 -2.062260 92.602800 -1.203260 87.517900 1.276200 5.525840 15.735700 0.000005 -0.000001 87.276800 85.791800 -86.073100 8.984550 -0.406207 -0.000000 0.646916 -0.474481 2.408250 16.377300 -0.000001 -0.000001 8.832370 1.980150 -1.983760 6.456720 -0.000001 -0.000000 -4.240290 1.144830 -0.541973 12.994200 -0.242716 4.980390 -93.430700 9.340780 -69.728300 5.348090 -0.000007 -0.000001 -73.559500 4.894350 2.104440 24.328600 0.000019 0.000005 18.608200 19.224200 -45.638600 22.291600 -0.000001 0.000005 -5.262360 4.945900 8.446770 12.994500 -0.242716 -4.980390 87.286900 7.214480 -69.326700 -5.348130 -0.000001 -0.000004 -68.907200 17.533300 0.511942 -24.328900 0.000322 -0.000009 10.305100 11.702200 -41.878500 -22.291500 -0.000108 -0.000004 -11.355600 5.104140 5.017500 -2.192480 -6.469440 -0.000000 -177.672000 0.039407 -0.233348 39.081100 -0.000007 -0.000012 0.239991 -0.584580 22.320400 40.985400 -0.000006 -0.000013 1.639420 3.132150 -71.564100 11.754300 -0.000000 0.000003 -0.001003 0.183084 -9.150010 -2.192510 6.469440 -0.000001 -174.986000 9.302120 -175.131000 -39.081100 -0.002282 -0.040193 0.076517 -0.278075 14.745200 -40.985400 0.000008 0.000006 2.791330 3.471990 -70.102100 -11.754300 -0.000006 -0.000006 -0.011278 0.280616 -5.169980
0.000000 0.000000 0.000000 0.000000 0.000000 -0.000000 -2.051720 92.619800 -1.292070 87.487100 1.283380 5.374600 15.735700 0.000005 -0.000001 87.216900 85.796400 -85.962800 8.984550 -0.406207 -0.000000 0.637849 -0.486050 2.509010 16.377300 -0.000001 -0.000001 8.639570 1.974140 -1.694630 6.456720 -0.000001 -0.000000 -4.792550 1.148820 -0.192264 12.994200 -0.242716 4.980390 -93.406100 9.216060 -69.614200 5.348090 -0.000007 -0.000001 -73.388500 2.053330 2.554230 24.328600 0.000019 0.000005 21.831300 17.107400 -53.707000 22.291600 -0.000001 0.000005 -4.227040 4.881700 9.739630 12.994500 -0.242716 -4.980390 87.361800 6.934730 -69.111300 -5.348130 -0.000001 -0.000004 -68.389200 13.850200 1.610860 -24.328900 0.000322 -0.000009 12.014200 10.427100 -49.624600 -22.291500 -0.000108 -0.000004 -11.105700 5.081590 5.531860 -2.192480 -6.469440 -0.000000 -177.690000 0.313933 -0.435136 39.081100 -0.000007 -0.000012 0.237197 -0.578732 22.287000 40.985400 -0.000006 -0.000013 1.596770 2.909840 -71.462700 11.754300 -0.000000 0.000003 -0.000987 0.182852 -9.159430 -2.192510 6.469440 -0.000001 -174.938000 9.244320 -175.344000 -39.081100 -0.002282 -0.040193 0.074713 -0.271747 14.717900 -40.985400 0.000008 0.000006 2.630470 3.469780 -69.953500 -11.754300 -0.000006 -0.000006 -0.010924 0.278086 -5.273540
